<svg xmlns="http://www.w3.org/2000/svg" viewBox="0 0 512 512">
	<g fill="#ffcb57">
		<rect x="13" y="322" width="96" height="150"/>
		<rect x="143" y="262" width="96" height="210"/>
		<rect x="273" y="202" width="96" height="270"/>
	</g>
	<rect fill="#7f7fef" x="403" y="142" width="96" height="330"/>
	<g fill="#3f3a34">
		<path d="M13 322L13 330L13 472L29 472L29 338L93 338L93 472L109 472L109 322L13 322Z"/>
		<path d="M143 262L143 270L143 472L159 472L159 278L223 278L223 472L239 472L239 262L143 262Z"/>
		<path d="M273 202L273 210L273 472L289 472L289 218L353 218L353 472L369 472L369 202L273 202Z"/>
		<path d="M403 142L403 150L403 472L419 472L419 158L483 158L483 472L499 472L499 142L403 142Z"/>
		<path d="M327.95117 21.332031C323.59342 21.335122 319.93768 24.647063 319.51367 29.039062C319.05287 33.732403 322.49098 37.905162 327.17578 38.357422L373.74414 42.873047L64.248047 221.56055C60.169107 223.91575 58.7698 229.12933 61.125 233.2168C62.70366 235.956 65.570898 237.48438 68.523438 237.48438C69.965567 237.48438 71.44152 237.11637 72.78125 236.33984L382.26562 57.658203L362.89648 100.23242C360.94234 104.52469 362.83664 109.57711 367.12891 111.53125C368.28091 112.06031 369.47598 112.29883 370.66211 112.29883C373.90478 112.29883 377.0112 110.4391 378.42773 107.29883L408.66211 40.839844C408.67346 40.817682 408.68219 40.793763 408.69336 40.771484C408.74841 40.661297 408.79554 40.547842 408.8457 40.435547C408.9059 40.301186 408.96809 40.167438 409.02148 40.029297C409.06419 39.918697 409.09866 39.805563 409.13672 39.693359C409.13937 39.685556 409.14191 39.677732 409.14453 39.669922C409.1883 39.539559 409.23387 39.410635 409.27148 39.277344C409.30933 39.143736 409.33977 39.008353 409.37109 38.873047C409.37138 38.871807 409.37081 38.87038 409.37109 38.869141C409.37123 38.868544 409.37096 38.867784 409.37109 38.867188C409.37583 38.846801 409.38214 38.827039 409.38672 38.806641C409.3873 38.804024 409.38809 38.801445 409.38867 38.798828C409.41032 38.700722 409.43289 38.603366 409.45117 38.503906C409.47905 38.353676 409.4997 38.202459 409.51953 38.050781C409.52294 38.024738 409.52613 37.998702 409.5293 37.972656C409.52977 37.968769 409.52883 37.964825 409.5293 37.960938C409.53663 37.899157 409.55061 37.83957 409.55664 37.777344C409.55935 37.749784 409.55811 37.722835 409.56055 37.695312C409.57399 37.543267 409.58065 37.391162 409.58594 37.238281C409.58715 37.202439 409.58713 37.166675 409.58789 37.130859C409.59022 37.028493 409.59702 36.925899 409.5957 36.824219C409.59373 36.683654 409.58319 36.543083 409.57422 36.402344C409.57232 36.372959 409.56861 36.343799 409.56641 36.314453C409.558 36.199677 409.55399 36.084334 409.54102 35.970703C409.52578 35.838345 409.50007 35.706272 409.47852 35.574219C409.47466 35.550711 409.47085 35.527373 409.4668 35.503906C409.46612 35.5 409.46552 35.496092 409.46484 35.492188C409.44518 35.378287 409.43044 35.262845 409.40625 35.150391C409.37908 35.024497 409.34166 34.900599 409.30859 34.775391C409.30189 34.750013 409.296 34.724529 409.28906 34.699219C409.28743 34.693262 409.28485 34.687594 409.2832 34.681641C409.25089 34.564629 409.22271 34.447113 409.18555 34.332031C409.14923 34.219681 409.10374 34.109504 409.0625 33.998047C409.06108 33.9942 409.06002 33.990174 409.05859 33.986328C409.05766 33.98382 409.05757 33.981022 409.05664 33.978516C409.05398 33.971374 409.05151 33.964164 409.04883 33.957031C409.0476 33.953749 409.04616 33.950546 409.04492 33.947266C408.99138 33.805336 408.93779 33.663795 408.87695 33.525391C408.83749 33.435548 408.79281 33.346839 408.75 33.257812C408.73525 33.227066 408.7202 33.196591 408.70508 33.166016C408.64115 33.037273 408.57801 32.908306 408.50781 32.783203C408.48947 32.750394 408.47585 32.716261 408.45703 32.683594C408.42388 32.626382 408.38387 32.575689 408.34961 32.519531C408.32777 32.483563 408.30558 32.447772 408.2832 32.412109C408.20872 32.293853 408.13283 32.176864 408.05273 32.0625C407.99718 31.983129 407.94064 31.905096 407.88281 31.828125C407.86533 31.804811 407.84586 31.782913 407.82812 31.759766C407.73042 31.632534 407.63202 31.50631 407.52734 31.384766C407.47153 31.319913 407.4149 31.256225 407.35742 31.193359C407.33166 31.165172 407.30351 31.139197 407.27734 31.111328C407.18044 31.008167 407.08245 30.906907 406.98047 30.808594C406.88479 30.716429 406.78685 30.628144 406.6875 30.541016C406.57084 30.438542 406.45239 30.338333 406.33008 30.242188C406.25575 30.183873 406.18148 30.125964 406.10547 30.070312C406.08107 30.052465 406.05588 30.035193 406.03125 30.017578C405.90873 29.929661 405.78366 29.845191 405.65625 29.763672C405.56711 29.706774 405.4777 29.651088 405.38672 29.597656C405.3739 29.590131 405.36053 29.583637 405.34766 29.576172C405.21241 29.497539 405.07558 29.422893 404.93555 29.351562C404.83236 29.299022 404.72811 29.249414 404.62305 29.201172C404.62118 29.200315 404.61905 29.200074 404.61719 29.199219C404.61504 29.198231 404.61348 29.196298 404.61133 29.195312C404.60469 29.192278 404.59845 29.188565 404.5918 29.185547C404.58592 29.182841 404.5801 29.180425 404.57422 29.177734C404.4557 29.124287 404.33633 29.073547 404.21484 29.025391C404.10612 28.982138 403.99703 28.941084 403.88672 28.902344C403.82167 28.879134 403.7567 28.855504 403.69141 28.833984C403.60824 28.807209 403.5238 28.78406 403.43945 28.759766C403.33497 28.729383 403.23055 28.700213 403.125 28.673828C403.01182 28.64509 402.89872 28.619572 402.78516 28.595703C402.75285 28.589122 402.71995 28.584345 402.6875 28.578125C402.67054 28.57477 402.65369 28.571607 402.63672 28.568359C402.54877 28.551744 402.46151 28.533387 402.37305 28.519531C402.17567 28.488245 401.97877 28.46431 401.78125 28.447266L401.77148 28.447266C401.76882 28.447041 401.76633 28.445535 401.76367 28.445312C401.71733 28.44144 401.67143 28.436709 401.625 28.433594L328.83203 21.376953C328.53603 21.347086 328.24169 21.331825 327.95117 21.332031Z"/>
		<rect x="13" y="488" width="486" height="16"/>
	</g>
</svg>