<svg xmlns="http://www.w3.org/2000/svg" viewBox="0 0 496 496">
	<path fill="#FFCB57" d="M352,56H144c-4.416,0-8-3.584-8-8V16c0-4.416,3.584-8,8-8h208c4.416,0,8,3.584,8,8v32 C360,52.416,356.416,56,352,56z"/>
	<path fill="#FFCB57" d="M352,136H144c-4.416,0-8-3.584-8-8V96c0-4.416,3.584-8,8-8h208c4.416,0,8,3.584,8,8v32 C360,132.416,356.416,136,352,136z"/>
	<path fill="#FFCB57" d="M352,216H144c-4.416,0-8-3.584-8-8v-32c0-4.416,3.584-8,8-8h208c4.416,0,8,3.584,8,8v32 C360,212.416,356.416,216,352,216z"/>
	<path fill="#FFCB57" d="M296,400h-48l-19.312-19.312c-3-3-7.072-4.688-11.312-4.688H200c-8.84,0-16,7.16-16,16v80 c0,8.84,7.16,16,16,16h96c8.84,0,16-7.16,16-16v-56C312,407.16,304.84,400,296,400z"/>
	<path fill="#FFCB57" d="M120,400H72l-19.312-19.312c-3-3-7.072-4.688-11.312-4.688H24c-8.84,0-16,7.16-16,16v80 c0,8.84,7.16,16,16,16h96c8.84,0,16-7.16,16-16v-56C136,407.16,128.84,400,120,400z"/>
	<path fill="#FFCB57" d="M472,400h-48l-19.312-19.312c-3-3-7.072-4.688-11.312-4.688H376c-8.84,0-16,7.16-16,16v80 c0,8.84,7.16,16,16,16h96c8.84,0,16-7.16,16-16v-56C488,407.16,480.84,400,472,400z"/>
	<path fill="#3F3A34" d="M368,208v-32c0-8.824-7.176-16-16-16h-24v-16h24c8.824,0,16-7.176,16-16V96c0-8.824-7.176-16-16-16 h-24V64h24c8.824,0,16-7.176,16-16V16c0-8.824-7.176-16-16-16H144c-8.824,0-16,7.176-16,16v32c0,8.824,7.176,16,16,16h24v16h-24 c-8.824,0-16,7.176-16,16v32c0,8.824,7.176,16,16,16h24v16h-24c-8.824,0-16,7.176-16,16v32c0,8.824,7.176,16,16,16h208 C360.824,224,368,216.824,368,208z M144,16h208l0.008,32H144V16z M184,64h128v16H184V64z M144,96h208l0.008,32H144V96z M184,144 h128v16H184V144z M144,176h208l0.008,32H144V176z"/>
	<path fill="#3F3A34" d="M296,392h-44.688l-16.968-16.968c-4.528-4.536-10.56-7.032-16.976-7.032H200 c-13.232,0-24,10.768-24,24v80c0,13.232,10.768,24,24,24h96c13.232,0,24-10.768,24-24v-56C320,402.768,309.232,392,296,392z M296,480h-96c-4.408,0-8-3.584-8-8v-80c0-4.416,3.592-8,8-8h17.368c2.136,0,4.152,0.832,5.664,2.344L244.688,408H296 c4.408,0,8,3.584,8,8v8h-96v16h96v32C304,476.416,300.408,480,296,480z"/>
	<path fill="#3F3A34" d="M120,392H75.312l-16.968-16.968C53.816,370.496,47.784,368,41.368,368H24c-13.232,0-24,10.768-24,24 v80c0,13.232,10.768,24,24,24h96c13.232,0,24-10.768,24-24v-56C144,402.768,133.232,392,120,392z M120,480H24c-4.408,0-8-3.584-8-8 v-80c0-4.416,3.592-8,8-8h17.368c2.136,0,4.152,0.832,5.664,2.344L68.688,408H120c4.408,0,8,3.584,8,8v8H32v16h96v32 C128,476.416,124.408,480,120,480z"/>
	<path fill="#3F3A34" d="M472,392h-44.688l-16.968-16.968c-4.528-4.536-10.56-7.032-16.976-7.032H376 c-13.232,0-24,10.768-24,24v80c0,13.232,10.768,24,24,24h96c13.232,0,24-10.768,24-24v-56C496,402.768,485.232,392,472,392z M472,480h-96c-4.408,0-8-3.584-8-8v-80c0-4.416,3.592-8,8-8h17.368c2.136,0,4.152,0.832,5.664,2.344L420.688,408H472 c4.408,0,8,3.584,8,8v8h-96v16h96v32C480,476.416,476.408,480,472,480z"/>
	<rect x="240" y="240" fill="#3F3A34" width="16" height="80"/>
	<path fill="#3F3A34" d="M416,144v184h16V144c0-22.056-17.944-40-40-40h-8v16h8C405.232,120,416,130.768,416,144z"/>
	<path fill="#3F3A34" d="M80,144c0-13.232,10.768-24,24-24h8v-16h-8c-22.056,0-40,17.944-40,40v184h16V144z"/>
	<path fill="#7f7fef" d="M248,360c-13.232,0-24-10.768-24-24s10.768-24,24-24s24,10.768,24,24S261.232,360,248,360z M248,328 c-4.408,0-8,3.584-8,8s3.592,8,8,8c4.408,0,8-3.584,8-8S252.408,328,248,328z"/>
	<path fill="#7f7fef" d="M424,368c-13.232,0-24-10.768-24-24s10.768-24,24-24s24,10.768,24,24S437.232,368,424,368z M424,336 c-4.408,0-8,3.584-8,8s3.592,8,8,8s8-3.584,8-8S428.408,336,424,336z"/>
	<path fill="#7f7fef" d="M72,368c-13.232,0-24-10.768-24-24s10.768-24,24-24s24,10.768,24,24S85.232,368,72,368z M72,336 c-4.408,0-8,3.584-8,8s3.592,8,8,8s8-3.584,8-8S76.408,336,72,336z"/>
</svg>