<svg xmlns="http://www.w3.org/2000/svg" viewBox="0 0 512 512" width="256" height="256">
	<path d="m 128.70797,496.704 c 10.082,-54.649 3.212,-111.074 -19.691,-161.707 l 19.499,-8.661 c 23.212,51.454 31.146,108.495 22.859,164.331 h 207.189 l -27.296,-81.963 c -0.64,-1.922 -0.719,-3.986 -0.228,-5.951 1.427,-5.716 7.217,-9.193 12.932,-7.766 0.448,0.085 40.117,9.771 68.715,0.224 20.907,-6.976 19.093,-59.659 14.933,-84.085 -0.101,-0.593 -0.152,-1.193 -0.152,-1.794 0.001,-5.891 4.778,-10.666 10.669,-10.664 h 38.688 c 7.638,0 13.837,-6.176 13.867,-13.813 0.005,-2.767 -0.828,-5.47 -2.389,-7.755 l -53.664,-79.083 c -1.612,-2.389 -2.196,-5.325 -1.621,-8.149 6.287,-38.491 -3.444,-77.879 -26.933,-109.013 -32.192,-39.499 -89.589,-59.52 -170.613,-59.52 V 0 c 87.753,0 150.687,22.667 187.156,67.371 26.753,34.722 38.318,78.792 32.064,122.176 l 51.264,75.562 c 3.917,5.803 6.013,12.643 6.023,19.644 0.026,19.44 -15.713,35.221 -35.153,35.247 h -26.485 c 2.827,26.368 4.629,83.595 -30.944,95.477 -20.252,5.633 -41.479,6.844 -62.24,3.552 l 26.325,78.933 c 0.362,1.088 0.547,2.227 0.547,3.373 -0.001,5.891 -4.778,10.666 -10.669,10.664 h -234.668 c -0.663,0 -1.325,-0.062 -1.976,-0.184 -5.789,-1.09 -9.599,-6.667 -8.509,-12.456 z" fill="#4f4fbf" />
	<path d="m 181.35897,85.333 c 53.019,0 96,42.981 96,96 0,53.019 -42.981,96 -96,96 -52.993,-0.065 -95.935002,-43.007 -96.000002,-96 0,-53.019 42.980002,-96 96.000002,-96 z m 0,170.667 c 41.237,0 74.667,-33.429 74.667,-74.667 0,-41.237 -33.429,-74.667 -74.667,-74.667 -41.218,0.047 -74.62,33.449 -74.667,74.667 0,41.238 33.429,74.667 74.667,74.667 z" fill="#4f4fbf" />
	<path d="m 224.02497,181.333 h 21.333 c -0.035,35.332 -28.668,63.965 -64,64 V 224 c 23.565,0 42.667,-19.102 42.667,-42.667 z" fill="#4f4fbf" />
	<path d="m 181.35897,117.333 v 21.333 c -23.564,0 -42.667,19.102 -42.667,42.667 h -21.333 c 0.035,-35.331 28.668,-63.964 64,-64 z" fill="#4f4fbf" />
	<path d="m 8.9319678,149.493 39.2960002,-6.56 c 2.878,-9.927 6.864,-19.498 11.883,-28.533 l -23.189,-32.459 c -3.028,-4.243 -2.545,-10.053 1.141,-13.739 l 30.176,-30.176 c 3.685,-3.686 9.495,-4.169 13.739,-1.141 l 32.459002,23.189 c 9.032,-5.014 18.6,-8.997 28.523,-11.872 l 6.549,-39.296 c 0.86,-5.139 5.307,-8.905 10.517,-8.907 h 42.666 c 5.211,0.002 9.658,3.767 10.517,8.907 l 6.549,39.296 c 9.926,2.874 19.498,6.857 28.533,11.872 l 32.459,-23.189 c 4.243,-3.028 10.053,-2.545 13.739,1.141 l 30.176,30.176 c 3.686,3.685 4.169,9.495 1.141,13.739 l -23.189,32.459 c 5.014,9.032 8.997,18.6 11.872,28.523 l 39.296,6.56 c 5.139,0.86 8.905,5.307 8.907,10.517 v 42.667 c -0.007,5.207 -3.771,9.648 -8.907,10.507 l -39.296,6.56 c -2.878,9.927 -6.864,19.498 -11.883,28.533 l 23.189,32.459 c 3.028,4.243 2.545,10.053 -1.141,13.739 l -30.176,30.176 c -3.685,3.686 -9.495,4.169 -13.739,1.141 l -32.459,-23.189 c -9.032,5.014 -18.6,8.997 -28.523,11.872 l -6.549,39.296 c -0.86,5.139 -5.307,8.905 -10.517,8.907 h -42.667 c -5.207,-0.007 -9.648,-3.771 -10.507,-8.907 l -6.56,-39.296 c -9.926,-2.874 -19.498,-6.857 -28.533,-11.872 l -32.459002,23.189 c -4.243,3.028 -10.053,2.545 -13.739,-1.141 l -30.176,-30.176 c -3.686,-3.685 -4.169,-9.495 -1.141,-13.739 l 23.189,-32.459 c -5.014,-9.032 -8.997,-18.6 -11.872,-28.523 l -39.2960002,-6.56 c -5.139,-0.86 -8.90499997,-5.307 -8.90699997,-10.517 V 160 c 0.009,-5.207 3.77399997,-9.648 8.90899997,-10.507 z m 12.4270002,44.139 37.237,6.24 c 4.25,0.711 7.654,3.91 8.629,8.107 2.926,12.458 7.881,24.35 14.667,35.2 2.288,3.66 2.145,8.338 -0.363,11.851 l -21.963,30.752 17.387,17.387 30.752002,-21.963 c 3.513,-2.507 8.191,-2.65 11.851,-0.363 10.85,6.786 22.742,11.741 35.2,14.667 4.197,0.975 7.395,4.38 8.107,8.629 l 6.197,37.195 h 24.597 l 6.24,-37.237 c 0.711,-4.25 3.909,-7.654 8.107,-8.629 12.458,-2.926 24.35,-7.881 35.2,-14.667 3.66,-2.288 8.338,-2.145 11.851,0.363 l 30.752,21.963 17.387,-17.387 -21.963,-30.752 c -2.507,-3.513 -2.651,-8.191 -0.363,-11.851 6.786,-10.85 11.741,-22.742 14.667,-35.2 0.975,-4.197 4.38,-7.395 8.629,-8.107 l 37.195,-6.197 v -24.597 l -37.195,-6.24 c -4.25,-0.711 -7.654,-3.91 -8.629,-8.107 -2.926,-12.458 -7.881,-24.35 -14.667,-35.2 -2.288,-3.66 -2.145,-8.338 0.363,-11.851 l 21.963,-30.752 -17.387,-17.387 -30.795,21.963 c -3.513,2.507 -8.191,2.65 -11.851,0.363 -10.85,-6.786 -22.742,-11.741 -35.2,-14.667 -4.197,-0.975 -7.395,-4.38 -8.107,-8.629 l -6.197,-37.195 h -24.597 l -6.24,37.195 c -0.711,4.25 -3.909,7.654 -8.107,8.629 -12.458,2.926 -24.35,7.881 -35.2,14.667 -3.66,2.288 -8.338,2.145 -11.851,-0.363 l -30.752002,-21.92 -17.387,17.387 21.963,30.752 c 2.507,3.513 2.65,8.191 0.363,11.851 -6.786,10.85 -11.741,22.742 -14.667,35.2 -0.975,4.197 -4.38,7.395 -8.629,8.107 l -37.195,6.197 v 24.596 z" fill="#4f4fbf" />
</svg>