<svg xmlns="http://www.w3.org/2000/svg" viewBox="0 0 512 512">
	<circle cx="255.87" cy="256.12" r="65.996" fill="#FFCB57"/>
	<path d="m255.98 359.19c-56.973 0-103.16-46.185-103.16-103.16s46.185-103.16 103.16-103.16v-142.83h-44.837v38.872c-25.357 5.448-49.031 15.426-70.126 29.059l-27.4-27.4-63.203 63.25 27.377 27.377c-13.632 21.095-23.61 44.768-29.057 70.126h-38.721v89.417h38.72c5.448 25.357 15.425 49.03 29.057 70.126l-27.377 27.377 63.203 63.25 27.4-27.4c21.095 13.633 44.768 23.611 70.126 29.059v38.823l44.837 0.025 1e-3 -142.81z" fill="#FFCB57"/>
	<path d="m205.66 128.4c5.138-2.027 7.658-7.835 5.631-12.972s-7.834-7.661-12.972-5.631c-29.005 11.447-53.76 31.094-71.586 56.818-18.254 26.338-27.901 57.259-27.901 89.416 0 5.523 4.478 9.999 9.999 9.999 5.522 0 9.999-4.477 9.999-9.999 0-56.715 34.083-106.81 86.83-127.63z" fill="#3F3A34"/>
	<path d="m321.87 246.13c-5.522 0-9.999 4.477-9.999 9.999 0 30.876-25.119 55.997-55.997 55.997s-55.997-25.121-55.997-55.997 25.119-55.997 55.997-55.997c5.522 0 9.999-4.477 9.999-9.999s-4.478-9.999-9.999-9.999c-41.903 0-75.995 34.091-75.995 75.995s34.092 75.995 75.995 75.995 75.995-34.091 75.995-75.995c0-5.522-4.477-9.999-9.999-9.999z" fill="#3F3A34"/>
	<path d="m348.94 255.75v0.377c0 5.523 4.478 9.999 9.999 9.999s9.999-4.477 9.999-9.999v-0.377c0-5.523-4.478-9.999-9.999-9.999s-9.999 4.476-9.999 9.999z" fill="#3F3A34"/>
	<path d="m304.34 336.94c-1.86 1.86-2.93 4.43-2.93 7.07 0 2.63 1.069 5.21 2.93 7.07s4.43 2.92 7.07 2.92c2.63 0 5.21-1.06 7.069-2.92 1.86-1.86 2.931-4.44 2.931-7.07 0-2.64-1.07-5.21-2.931-7.07-1.859-1.87-4.439-2.93-7.069-2.93-2.63 1e-3 -5.209 1.061-7.07 2.93z" fill="#3F3A34"/>
	<path d="m464.79 370.33-32.304-33.389c-1.876-1.875-4.419-2.929-7.071-2.929h-72.914c-5.522 0-9.999 4.477-9.999 9.999s4.478 9.999 9.999 9.999h68.771l29.379 30.464z" fill="#3f3a34"/>
	<path d="m413.85 451.1-33.655-59.795c-1.755-3.202-5.117-5.193-8.768-5.193h-105.44v-26.921c0-5.523-4.478-9.999-9.999-9.999-51.368 0-93.158-41.79-93.158-93.158 0-50.746 40.787-92.139 91.299-93.134 0.569 0.101 1.152 0.163 1.751 0.163 38.701 0 73.766 24.36 87.255 60.615 1.498 4.027 5.314 6.516 9.372 6.516 1.158 0 2.337-0.203 3.486-0.63 5.176-1.926 7.811-7.683 5.885-12.858-5.467-14.695-13.863-27.768-24.356-38.684h87.903c2.652 0 5.195-1.054 7.071-2.929l32.846-32.304-14.137-14.145-29.921 29.379h-109.42c-13.901-7.949-29.512-12.998-45.878-14.483v-18.075h105.44c3.642 0 6.996-1.98 8.755-5.168l32.556-59.95-15.474-13.353-31.74 58.471h-99.538v-95.424c0-5.523-4.478-9.999-9.999-9.999h-44.838c-5.522 0-9.999 4.477-9.999 9.999v30.943c-20.66 5.234-40.331 13.385-58.662 24.311l-21.796-21.795c-1.876-1.875-4.42-2.929-7.073-2.929-2.652 0-5.196 1.055-7.071 2.932l-63.203 63.25c-3.903 3.906-3.902 10.234 2e-3 14.138l21.771 21.772c-10.925 18.333-19.076 38.003-24.309 58.662h-30.79c-5.522 0-9.999 4.477-9.999 9.999v89.417c0 5.523 4.478 9.999 9.999 9.999h30.792c5.232 20.659 13.383 40.329 24.309 58.661l-21.771 21.772c-3.904 3.904-3.905 10.232-2e-3 14.138l63.203 63.25c1.875 1.876 4.419 2.931 7.071 2.932h2e-3c2.652 0 5.195-1.054 7.071-2.929l21.795-21.794c18.333 10.925 38.003 19.077 58.661 24.311v30.894c0 5.521 4.474 9.996 9.993 9.999h44.843c2.651 0 5.194-1.028 7.069-2.902 1.876-1.876 2.931-4.42 2.931-7.073v-95.889h99.52l32.855 58.334zm-167.87 40.896-24.838-0.014v-28.828c0-4.713-3.291-8.786-7.899-9.776-23.822-5.118-46.296-14.431-66.799-27.681-3.958-2.557-9.164-2.005-12.498 1.328l-20.327 20.328-49.067-49.104 20.31-20.31c3.332-3.333 3.886-8.539 1.327-12.498-13.249-20.503-22.562-42.976-27.678-66.798-0.99-4.608-5.063-7.9-9.776-7.9h-28.723v-69.418h28.721c4.714 0 8.786-3.292 9.776-7.9 5.117-23.822 14.429-46.295 27.678-66.798 2.559-3.958 2.005-9.165-1.327-12.498l-20.31-20.31 49.067-49.104 20.327 20.328c3.334 3.334 8.54 3.885 12.498 1.328 20.502-13.249 42.976-22.563 66.799-27.681 4.608-0.99 7.899-5.063 7.899-9.776v-28.873h24.839v123.27c-57.727 5.08-103.16 53.695-103.16 112.72s45.43 107.64 103.16 112.72z" fill="#3f3a34"/>
	<path d="m450.37 246.16h-34.383c-5.522 0-9.999 4.477-9.999 9.999 0 5.523 4.478 9.999 9.999 9.999h34.382z" fill="#3f3a34"/>
	<path d="m478.1 428.88c-17.648 0-32-14.352-32-32s14.352-32 32-32 32 14.352 32 32-14.352 32-32 32zm0-48c-8.824 0-16 7.176-16 16s7.176 16 16 16 16-7.176 16-16-7.176-16-16-16z" fill="#7f7fef"/>
	<path d="m478.1 288.41c-17.648 0-32-14.352-32-32s14.352-32 32-32 32 14.352 32 32-14.352 32-32 32zm0-48c-8.824 0-16 7.176-16 16s7.176 16 16 16 16-7.176 16-16-7.176-16-16-16z" fill="#7f7fef"/>
	<path d="m477.99 147.3c-17.648 0-32-14.352-32-32 0-17.648 14.352-32 32-32s32 14.352 32 32c0 17.648-14.352 32-32 32zm0-48c-8.824 0-16 7.176-16 16s7.176 16 16 16 16-7.176 16-16-7.176-16-16-16z" fill="#7f7fef"/>
	<path d="m423.99 65.83c-17.648 0-32-14.352-32-32s14.352-32 32-32 32 14.352 32 32-14.352 32-32 32zm0-48c-8.824 0-16 7.176-16 16s7.176 16 16 16 16-7.176 16-16-7.176-16-16-16z" fill="#7f7fef"/>
	<path d="m423.86 510.24c-17.648 0-32-14.352-32-32s14.352-32 32-32 32 14.352 32 32-14.352 32-32 32zm0-48c-8.824 0-16 7.176-16 16s7.176 16 16 16 16-7.176 16-16-7.176-16-16-16z" fill="#7f7fef"/>
</svg>