<svg xmlns="http://www.w3.org/2000/svg" viewBox="0 0 512 512">
	<circle fill="#FFCB57" stroke="#3F3A34" stroke-width="16" cx="248" cy="368" r="120"/>
	<path fill="#3F3A34" d="M288,352c17.648,0,32-14.352,32-32s-14.352-32-32-32s-32,14.352-32,32c0,0.992,0.208,1.936,0.296,2.904L208,347.056c-5.872-6.72-14.4-11.056-24-11.056c-17.648,0-32,14.352-32,32s14.352,32,32,32c9.6,0,18.128-4.336,24-11.056l48.296,24.144c-0.088,0.976-0.296,1.92-0.296,2.912c0,17.648,14.352,32,32,32s32-14.352,32-32s-14.352-32-32-32c-10.92,0-20.56,5.512-26.336,13.888l-46.392-23.2c0.464-2.16,0.728-4.392,0.728-6.688s-0.264-4.528-0.728-6.688l46.392-23.2C267.44,346.488,277.08,352,288,352z M288,400c8.824,0,16,7.176,16,16s-7.176,16-16,16s-16-7.176-16-16S279.176,400,288,400z M184,384c-8.824,0-16-7.176-16-16s7.176-16,16-16s16,7.176,16,16S192.824,384,184,384z M288,304c8.824,0,16,7.176,16,16s-7.176,16-16,16s-16-7.176-16-16S279.176,304,288,304z"/>
	<path fill="#3F3A34" d="M392,80c-0.952,0-1.888,0.128-2.832,0.152C378.24,33.344,336.752,0,288,0c-30.288,0-59,13.44-78.656,36.184C201.368,33.512,192.864,32,184,32c-32.84,0-61.096,19.904-73.408,48.272C108.4,80.136,106.2,80,104,80C46.656,80,0,126.656,0,184s46.656,104,104,104h32v-16h-32c-48.52,0-88-39.48-88-88s39.48-88,88-88c0.536,0,1.064,0.056,1.6,0.064c-1.04,5.152-1.6,10.48-1.6,15.936c0,44.112,35.888,80,80,80v-16c-35.288,0-64-28.712-64-64s28.712-64,64-64s64,28.712,64,64h16c0-29.304-15.88-54.904-39.44-68.84C241.04,26.024,263.936,16,288,16c40.576,0,75.248,27.264,85.176,65.84c-22.72,4.192-43.648,15.768-59.176,33.368l11.992,10.584C342.712,106.856,366.768,96,392,96c48.52,0,88,39.48,88,88s-39.48,88-88,88h-32v16h32c57.344,0,104-46.656,104-104S449.344,80,392,80z"/>
	<rect x="392" y="320" fill="#3F3A34" width="48" height="16"/>
	<rect x="392" y="400" fill="#3F3A34" width="48" height="16"/>
	<rect x="56" y="320" fill="#3F3A34" width="48" height="16"/>
	<rect x="56" y="400" fill="#3F3A34" width="48" height="16"/>
	<path fill="#7f7fef" d="M464,360c-17.648,0-32-14.352-32-32s14.352-32,32-32s32,14.352,32,32S481.648,360,464,360z M464,312c-8.824,0-16,7.176-16,16s7.176,16,16,16s16-7.176,16-16S472.824,312,464,312z"/>
	<path fill="#7f7fef" d="M464,440c-17.648,0-32-14.352-32-32s14.352-32,32-32s32,14.352,32,32S481.648,440,464,440z M464,392c-8.824,0-16,7.176-16,16s7.176,16,16,16s16-7.176,16-16S472.824,392,464,392z"/>
	<path fill="#7f7fef" d="M32,360c-17.648,0-32-14.352-32-32s14.352-32,32-32s32,14.352,32,32S49.648,360,32,360z M32,312c-8.824,0-16,7.176-16,16s7.176,16,16,16s16-7.176,16-16S40.824,312,32,312z"/>
	<path fill="#7f7fef" d="M32,440c-17.648,0-32-14.352-32-32s14.352-32,32-32s32,14.352,32,32S49.648,440,32,440z M32,392c-8.824,0-16,7.176-16,16s7.176,16,16,16s16-7.176,16-16S40.824,392,32,392z"/>
</svg>
