<svg xmlns="http://www.w3.org/2000/svg" viewBox="0 0 496 496">
	<path fill="#FFCB57" d="M216,280H24c-8.84,0-16,7.16-16,16v104h224V296C232,287.16,224.84,280,216,280z"/>
	<path fill="#FFCB57" d="M472,280H280c-8.84,0-16,7.16-16,16v104h224V296C488,287.16,480.84,280,472,280z"/>
	<path fill="#FFCB57" d="M168,168h160c4.416,0,8,3.584,8,8v32c0,4.416-3.584,8-8,8H168c-4.416,0-8-3.584-8-8v-32C160,171.584,163.584,168,168,168z"/>
	<path fill="#FFCB57" d="M168,88h160c4.416,0,8,3.584,8,8v32c0,4.416-3.584,8-8,8H168c-4.416,0-8-3.584-8-8V96C160,91.584,163.584,88,168,88z"/>
	<path fill="#FFCB57" d="M168,8h160c4.416,0,8,3.584,8,8v32c0,4.416-3.584,8-8,8H168c-4.416,0-8-3.584-8-8V16C160,11.584,163.584,8,168,8z"/>
	<path fill="#7f7fef" d="M416,256c-13.232,0-24-10.768-24-24s10.768-24,24-24s24,10.768,24,24S429.232,256,416,256z M416,224c-4.408,0-8,3.592-8,8s3.592,8,8,8s8-3.592,8-8S420.408,224,416,224z"/>
	<path fill="#7f7fef" d="M472,224c-13.232,0-24-10.768-24-24s10.768-24,24-24s24,10.768,24,24S485.232,224,472,224z M472,192c-4.408,0-8,3.592-8,8s3.592,8,8,8s8-3.592,8-8S476.408,192,472,192z"/>
	<path fill="#7f7fef" d="M80,256c-13.232,0-24-10.768-24-24s10.768-24,24-24s24,10.768,24,24S93.232,256,80,256z M80,224c-4.408,0-8,3.592-8,8s3.592,8,8,8s8-3.592,8-8S84.408,224,80,224z"/>
	<path fill="#7f7fef" d="M24,224c-13.232,0-24-10.768-24-24s10.768-24,24-24s24,10.768,24,24S37.232,224,24,224z M24,192c-4.408,0-8,3.592-8,8s3.592,8,8,8s8-3.592,8-8S28.408,192,24,192z"/>
	<path fill="#3F3A34" d="M0,440c0,13.232,10.768,24,24,24h40v16H32v16h176v-16h-32v-16h40c13.232,0,24-10.768,24-24v-24H0V440z M160,480H80v-16h80V480z M16,432h208v8c0,4.408-3.592,8-8,8H24c-4.408,0-8-3.592-8-8V432z"/>
	<path fill="#3F3A34" d="M216,272H24c-13.232,0-24,10.768-24,24v104h16V296c0-4.408,3.592-8,8-8h192c4.408,0,8,3.592,8,8v104h16V296C240,282.768,229.232,272,216,272z"/>
	<path fill="#3F3A34" d="M256,440c0,13.232,10.768,24,24,24h40v16h-32v16h176v-16h-32v-16h40c13.232,0,24-10.768,24-24v-24H256V440z M416,480h-80v-16h80V480z M272,432h208v8c0,4.408-3.592,8-8,8H280c-4.408,0-8-3.592-8-8V432z"/>
	<path fill="#3F3A34" d="M472,272H280c-13.232,0-24,10.768-24,24v104h16V296c0-4.408,3.592-8,8-8h192c4.408,0,8,3.592,8,8v104h16V296C496,282.768,485.232,272,472,272z"/>
	<path fill="#3F3A34" d="M168,224h160c8.824,0,16-7.176,16-16v-32c0-8.824-7.176-16-16-16h-8v-16h8c8.824,0,16-7.176,16-16V96c0-8.824-7.176-16-16-16h-8V64h8c8.824,0,16-7.176,16-16V16c0-8.824-7.176-16-16-16H168c-8.824,0-16,7.176-16,16v32c0,8.824,7.176,16,16,16h8v16h-8c-8.824,0-16,7.176-16,16v32c0,8.824,7.176,16,16,16h8v16h-8c-8.824,0-16,7.176-16,16v32C152,216.824,159.176,224,168,224z M167.992,16H168h160v32H168L167.992,16z M192,64h112v16H192V64z M167.992,96H168h160v32H168L167.992,96z M192,144h112v16H192V144z M168,176h160v32H168l-0.008-32H168z"/>
	<path fill="#3F3A34" d="M464,88v72h16V88c0-22.056-17.944-40-40-40h-80v16h80C453.232,64,464,74.768,464,88z"/>
	<path fill="#3F3A34" d="M408,104v88h16v-88c0-13.232-10.768-24-24-24h-40v16h40C404.408,96,408,99.592,408,104z"/>
	<path fill="#3F3A34" d="M32,88c0-13.232,10.768-24,24-24h80V48H56c-22.056,0-40,17.944-40,40v72h16V88z"/>
	<path fill="#3F3A34" d="M72,104v88h16v-88c0-4.408,3.592-8,8-8h40V80H96C82.768,80,72,90.768,72,104z"/>
</svg>