<svg xmlns="http://www.w3.org/2000/svg" viewBox="0 0 496 496">
	<path d="m349.58 345.86c-2.664-12.288-7.528-23.744-14.12-33.992l8.704-17.408-22.624-22.624-17.408 8.704c-10.248-6.592-21.704-11.456-33.992-14.12l-6.144-18.424h-32l-6.136 18.416c-12.288 2.664-23.744 7.528-33.992 14.12l-17.408-8.704-22.624 22.624 8.704 17.408c-6.592 10.248-11.456 21.704-14.12 33.992l-18.424 6.144v16h80c0-22.088 17.912-40 40-40s40 17.912 40 40h80v-16l-18.416-6.136z" fill="#FFCB57"/>
	<g fill="#3F3A34">
		<path d="m0 408c0 22.056 17.944 40 40 40h112v32h-32v16h256v-16h-32v-32h112c22.056 0 40-17.944 40-40v-24h-496v24zm328 72h-160v-32h160v32zm-312-80h464v8c0 13.232-10.768 24-24 24h-416c-13.232 0-24-10.768-24-24v-8z"/>
		<path d="m456 72h-56v16h56c13.232 0 24 10.768 24 24v256h16v-256c0-22.056-17.944-40-40-40z"/>
		<path d="M16,112c0-13.232,10.768-24,24-24h56V72H40C17.944,72,0,89.944,0,112v256h16V112z"/>
		<path d="m376 368v-21.768l-19.672-6.56c-2.576-9.88-6.504-19.336-11.728-28.208l9.296-18.584-30.784-30.784-18.584 9.296c-8.872-5.208-18.328-9.144-28.2-11.728l-6.56-19.664h-43.528l-6.56 19.664c-9.872 2.584-19.328 6.512-28.2 11.728l-18.584-9.296-30.784 30.784 9.296 18.584c-5.216 8.872-9.152 18.328-11.728 28.208l-19.68 6.56v21.768h16v-10.232l17.264-5.76 0.968-4.448c2.416-11.128 6.808-21.672 13.032-31.36l2.472-3.832-8.168-16.328 14.472-14.472 16.32 8.168 3.832-2.464c9.688-6.232 20.24-10.616 31.368-13.032l4.448-0.968 5.76-17.272h20.472l5.76 17.264 4.448 0.968c11.128 2.416 21.68 6.808 31.368 13.032l3.832 2.464 16.32-8.168 14.472 14.472-8.168 16.328 2.472 3.832c6.224 9.688 10.616 20.24 13.032 31.36l0.968 4.448 17.256 5.768v10.232h16z"/>
		<path d="m328 368c0-44.112-35.888-80-80-80s-80 35.888-80 80h16c0-35.288 28.712-64 64-64s64 28.712 64 64h16z"/>
		<path d="m248 320c-26.472 0-48 21.528-48 48h16c0-17.648 14.352-32 32-32s32 14.352 32 32h16c0-26.472-21.528-48-48-48z"/>
		<path d="M128,16h192v56h64V52.688L331.312,0H112v296h16V16z M336,27.312L364.688,56H336V27.312z"/>
		<rect x="368" y="88" width="16" height="208"/>
		<polygon points="304 48 304 32 144 32 144 128 352 128 352 88 336 88 336 112 160 112 160 48"/>
	</g>
	<g fill="#7f7fef">
		<rect x="144" y="144" width="16" height="16"/>
		<rect x="176" y="144" width="176" height="16"/>
		<rect x="336" y="208" width="16" height="16"/>
		<rect x="144" y="208" width="176" height="16"/>
		<rect x="144" y="176" width="208" height="16"/>
	</g>
</svg>
